{"title":"Negro Jose Y Lele El Vocero - Invisible (h264/mp4)","uid":7474738,"size":59116010,"categoryP":"video","categoryS":"music_videos","magnet":"?xt=urn:btih:a736d3d23a5f77e6a72042cb5dce35bd7a7dd37f&amp;dn=Negro+Jose+Y+Lele+El+Vocero+-+Invisible+%28h264%2Fmp4%29&amp;tr=udp%3A%2F%2Ftracker.openbittorrent.com%3A80&amp;tr=udp%3A%2F%2Fopen.demonii.com%3A1337&amp;tr=udp%3A%2F%2Ftracker.coppersurfer.tk%3A6969&amp;tr=udp%3A%2F%2Fexodus.desync.com%3A6969","seeders":1,"leechers":0,"uploader":"MusicVideos-HQ","files":1,"time":1343259842,"description":"General\n\nFormat                         : MPEG-4\nFormat profile                 : Base Media\nCodec ID                       : isom\nFile size                      : 56.4 MiB\nDuration                       : 4mn 55s\nOverall bit rate mode          : Variable\nOverall bit rate               : 1 598 Kbps\nEncoded date                   : UTC 2012-07-25 04:54:29\nTagged date                    : UTC 2012-07-25 04:54:29\n\nVideo\nID                             : 1\nFormat                         : AVC\nFormat/Info                    : Advanced Video Codec\nFormat profile                 : &lt;a class=&quot;__cf_email__&quot; href=&quot;/cdn-cgi/l/email-protection&quot; data-cfemail=&quot;a5edccc2cde5e9968b95&quot;&gt;[email&amp;#160;protected]&lt;/a&gt;&lt;script cf-hash='f9e31' type=&quot;text/javascript&quot;&gt;\n/* &lt;![CDATA[ */!function(){try{var t=&quot;currentScript&quot;in document?document.currentScript:function(){for(var t=document.getElementsByTagName(&quot;script&quot;),e=t.length;e--;)if(t[e].getAttribute(&quot;cf-hash&quot;))return t[e]}();if(t&amp;&amp;t.previousSibling){var e,r,n,i,c=t.previousSibling,a=c.getAttribute(&quot;data-cfemail&quot;);if(a){for(e=&quot;&quot;,r=parseInt(a.substr(0,2),16),n=2;a.length-n;n+=2)i=parseInt(a.substr(n,2),16)^r,e+=String.fromCharCode(i);e=document.createTextNode(e),c.parentNode.replaceChild(e,c)}}}catch(u){}}();/* ]]&gt; */&lt;/script&gt;\nFormat settings, CABAC         : Yes\nFormat settings, ReFrames      : 2 frames\nCodec ID                       : avc1\nCodec ID/Info                  : Advanced Video Coding\nDuration                       : 4mn 55s\nBit rate                       : 1 400 Kbps\nMaximum bit rate               : 3 960 Kbps\nWidth                          : 720 pixels\nHeight                         : 480 pixels\nDisplay aspect ratio           : 16:9\nOriginal display aspect ratio  : 16:9\nFrame rate mode                : Constant\nFrame rate                     : 23.976 fps\nStandard                       : NTSC\nColor space                    : YUV\nChroma subsampling             : 4:2:0\nBit depth                      : 8 bits\nScan type                      : Progressive\nBits/(Pixel*Frame)             : 0.169\nStream size                    : 49.5 MiB (88%)\nWriting library                : x264 core 119 r2106 07efeb4\n\n\nAudio\nID                             : 2\nFormat                         : AAC\nFormat/Info                    : Advanced Audio Codec\nFormat profile                 : LC\nCodec ID                       : 40\nDuration                       : 4mn 55s\nBit rate mode                  : Variable\nBit rate                       : 192 Kbps\nMaximum bit rate               : 211 Kbps\nChannel(s)                     : 2 channels\nChannel positions              : Front: L R\nSampling rate                  : 44.1 KHz\nCompression mode               : Lossy\nDelay relative to video        : -833ms\nStream size                    : 6.67 MiB (12%)","torrent":{"xt":"urn:btih:a736d3d23a5f77e6a72042cb5dce35bd7a7dd37f","amp;dn":"Negro+Jose+Y+Lele+El+Vocero+-+Invisible+%28h264%2Fmp4%29","amp;tr":["udp%3A%2F%2Ftracker.openbittorrent.com%3A80","udp%3A%2F%2Fopen.demonii.com%3A1337","udp%3A%2F%2Ftracker.coppersurfer.tk%3A6969","udp%3A%2F%2Fexodus.desync.com%3A6969"],"infoHash":"a736d3d23a5f77e6a72042cb5dce35bd7a7dd37f","infoHashBuffer":{"type":"Buffer","data":[167,54,211,210,58,95,119,230,167,32,66,203,93,206,53,189,122,125,211,127]},"announce":[],"urlList":[]}}